<?xml version="1.0" encoding="UTF-8" standalone="no"?>
<!DOCTYPE svg PUBLIC "-//W3C//DTD SVG 1.1//EN"
 "http://www.w3.org/Graphics/SVG/1.1/DTD/svg11.dtd">
<!-- Generated by graphviz version 2.43.0 (0)
 -->
<!-- Title: ConfigBaseSwig Pages: 1 -->
<svg width="160pt" height="140pt"
 viewBox="0.00 0.00 160.00 140.00" xmlns="http://www.w3.org/2000/svg" xmlns:xlink="http://www.w3.org/1999/xlink">
<g id="graph0" class="graph" transform="scale(1 1) rotate(0) translate(4 136)">
<title>ConfigBaseSwig</title>
<!-- Node0 -->
<g id="node1" class="node">
<title>Node0</title>
<g id="a_node1"><a xlink:title=" ">
<polygon fill="#bfbfbf" stroke="black" points="28.5,-112.5 28.5,-131.5 123.5,-131.5 123.5,-112.5 28.5,-112.5"/>
<text text-anchor="middle" x="76" y="-119.5" font-family="Helvetica,sans-Serif" font-size="10.00">ConfigBaseSwig</text>
</a>
</g>
</g>
<!-- Node1 -->
<g id="node2" class="node">
<title>Node1</title>
<g id="a_node2"><a xlink:href="class_config_device_detection_swig.html" target="_top" xlink:title=" ">
<polygon fill="none" stroke="black" points="0,-56.5 0,-75.5 152,-75.5 152,-56.5 0,-56.5"/>
<text text-anchor="middle" x="76" y="-63.5" font-family="Helvetica,sans-Serif" font-size="10.00">ConfigDeviceDetectionSwig</text>
</a>
</g>
</g>
<!-- Node0&#45;&gt;Node1 -->
<g id="edge1" class="edge">
<title>Node0&#45;&gt;Node1</title>
<path fill="none" stroke="midnightblue" d="M56.71,-102.69C54.63,-93.59 55.93,-83.01 60.61,-75.75"/>
<polygon fill="midnightblue" stroke="midnightblue" points="53.51,-104.12 60.5,-112.08 60.01,-101.5 53.51,-104.12"/>
</g>
<!-- Node0&#45;&gt;Node1 -->
<g id="edge6" class="edge">
<title>Node0&#45;&gt;Node1</title>
<path fill="none" stroke="midnightblue" d="M69.53,-102.1C68.9,-93.14 69.34,-82.86 70.87,-75.75"/>
<polygon fill="midnightblue" stroke="midnightblue" points="66.07,-102.62 70.83,-112.08 73.01,-101.71 66.07,-102.62"/>
</g>
<!-- Node0&#45;&gt;Node1 -->
<g id="edge7" class="edge">
<title>Node0&#45;&gt;Node1</title>
<path fill="none" stroke="midnightblue" d="M82.47,-102.1C83.1,-93.14 82.66,-82.86 81.13,-75.75"/>
<polygon fill="midnightblue" stroke="midnightblue" points="78.99,-101.71 81.17,-112.08 85.93,-102.62 78.99,-101.71"/>
</g>
<!-- Node0&#45;&gt;Node1 -->
<g id="edge8" class="edge">
<title>Node0&#45;&gt;Node1</title>
<path fill="none" stroke="midnightblue" d="M95.29,-102.69C97.37,-93.59 96.07,-83.01 91.39,-75.75"/>
<polygon fill="midnightblue" stroke="midnightblue" points="91.99,-101.5 91.5,-112.08 98.49,-104.12 91.99,-101.5"/>
</g>
<!-- Node2 -->
<g id="node3" class="node">
<title>Node2</title>
<g id="a_node3"><a xlink:href="class_config_hash_swig.html" target="_top" xlink:title=" ">
<polygon fill="none" stroke="black" points="28.5,-0.5 28.5,-19.5 123.5,-19.5 123.5,-0.5 28.5,-0.5"/>
<text text-anchor="middle" x="76" y="-7.5" font-family="Helvetica,sans-Serif" font-size="10.00">ConfigHashSwig</text>
</a>
</g>
</g>
<!-- Node1&#45;&gt;Node2 -->
<g id="edge2" class="edge">
<title>Node1&#45;&gt;Node2</title>
<path fill="none" stroke="midnightblue" d="M56.71,-46.69C54.63,-37.59 55.93,-27.01 60.61,-19.75"/>
<polygon fill="midnightblue" stroke="midnightblue" points="53.51,-48.12 60.5,-56.08 60.01,-45.5 53.51,-48.12"/>
</g>
<!-- Node1&#45;&gt;Node2 -->
<g id="edge3" class="edge">
<title>Node1&#45;&gt;Node2</title>
<path fill="none" stroke="midnightblue" d="M69.53,-46.1C68.9,-37.14 69.34,-26.86 70.87,-19.75"/>
<polygon fill="midnightblue" stroke="midnightblue" points="66.07,-46.62 70.83,-56.08 73.01,-45.71 66.07,-46.62"/>
</g>
<!-- Node1&#45;&gt;Node2 -->
<g id="edge4" class="edge">
<title>Node1&#45;&gt;Node2</title>
<path fill="none" stroke="midnightblue" d="M82.47,-46.1C83.1,-37.14 82.66,-26.86 81.13,-19.75"/>
<polygon fill="midnightblue" stroke="midnightblue" points="78.99,-45.71 81.17,-56.08 85.93,-46.62 78.99,-45.71"/>
</g>
<!-- Node1&#45;&gt;Node2 -->
<g id="edge5" class="edge">
<title>Node1&#45;&gt;Node2</title>
<path fill="none" stroke="midnightblue" d="M95.29,-46.69C97.37,-37.59 96.07,-27.01 91.39,-19.75"/>
<polygon fill="midnightblue" stroke="midnightblue" points="91.99,-45.5 91.5,-56.08 98.49,-48.12 91.99,-45.5"/>
</g>
</g>
</svg>
