<?xml version="1.0" encoding="UTF-8" standalone="no"?>
<!DOCTYPE svg PUBLIC "-//W3C//DTD SVG 1.1//EN"
 "http://www.w3.org/Graphics/SVG/1.1/DTD/svg11.dtd">
<!-- Generated by graphviz version 2.43.0 (0)
 -->
<!-- Title: EvidenceDeviceDetectionSwig Pages: 1 -->
<svg width="173pt" height="140pt"
 viewBox="0.00 0.00 173.00 140.00" xmlns="http://www.w3.org/2000/svg" xmlns:xlink="http://www.w3.org/1999/xlink">
<g id="graph0" class="graph" transform="scale(1 1) rotate(0) translate(4 136)">
<title>EvidenceDeviceDetectionSwig</title>
<!-- Node0 -->
<g id="node1" class="node">
<title>Node0</title>
<g id="a_node1"><a xlink:title=" ">
<polygon fill="#bfbfbf" stroke="black" points="0,-0.5 0,-19.5 165,-19.5 165,-0.5 0,-0.5"/>
<text text-anchor="middle" x="82.5" y="-7.5" font-family="Helvetica,sans-Serif" font-size="10.00">EvidenceDeviceDetectionSwig</text>
</a>
</g>
</g>
<!-- Node1 -->
<g id="node2" class="node">
<title>Node1</title>
<g id="a_node2"><a xlink:href="class_evidence_base_swig.html" target="_top" xlink:title=" ">
<polygon fill="none" stroke="black" points="28.5,-56.5 28.5,-75.5 136.5,-75.5 136.5,-56.5 28.5,-56.5"/>
<text text-anchor="middle" x="82.5" y="-63.5" font-family="Helvetica,sans-Serif" font-size="10.00">EvidenceBaseSwig</text>
</a>
</g>
</g>
<!-- Node1&#45;&gt;Node0 -->
<g id="edge1" class="edge">
<title>Node1&#45;&gt;Node0</title>
<path fill="none" stroke="midnightblue" d="M63.21,-46.69C61.13,-37.59 62.43,-27.01 67.11,-19.75"/>
<polygon fill="midnightblue" stroke="midnightblue" points="60.01,-48.12 67,-56.08 66.51,-45.5 60.01,-48.12"/>
</g>
<!-- Node1&#45;&gt;Node0 -->
<g id="edge6" class="edge">
<title>Node1&#45;&gt;Node0</title>
<path fill="none" stroke="midnightblue" d="M76.03,-46.1C75.4,-37.14 75.84,-26.86 77.37,-19.75"/>
<polygon fill="midnightblue" stroke="midnightblue" points="72.57,-46.62 77.33,-56.08 79.51,-45.71 72.57,-46.62"/>
</g>
<!-- Node1&#45;&gt;Node0 -->
<g id="edge7" class="edge">
<title>Node1&#45;&gt;Node0</title>
<path fill="none" stroke="midnightblue" d="M88.97,-46.1C89.6,-37.14 89.16,-26.86 87.63,-19.75"/>
<polygon fill="midnightblue" stroke="midnightblue" points="85.49,-45.71 87.67,-56.08 92.43,-46.62 85.49,-45.71"/>
</g>
<!-- Node1&#45;&gt;Node0 -->
<g id="edge8" class="edge">
<title>Node1&#45;&gt;Node0</title>
<path fill="none" stroke="midnightblue" d="M101.79,-46.69C103.87,-37.59 102.57,-27.01 97.89,-19.75"/>
<polygon fill="midnightblue" stroke="midnightblue" points="98.49,-45.5 98,-56.08 104.99,-48.12 98.49,-45.5"/>
</g>
<!-- Node2 -->
<g id="node3" class="node">
<title>Node2</title>
<g id="a_node3"><a xlink:href="class_map_string_string_swig.html" target="_top" xlink:title=" ">
<polygon fill="none" stroke="black" points="23.5,-112.5 23.5,-131.5 141.5,-131.5 141.5,-112.5 23.5,-112.5"/>
<text text-anchor="middle" x="82.5" y="-119.5" font-family="Helvetica,sans-Serif" font-size="10.00">MapStringStringSwig</text>
</a>
</g>
</g>
<!-- Node2&#45;&gt;Node1 -->
<g id="edge2" class="edge">
<title>Node2&#45;&gt;Node1</title>
<path fill="none" stroke="midnightblue" d="M63.21,-102.69C61.13,-93.59 62.43,-83.01 67.11,-75.75"/>
<polygon fill="midnightblue" stroke="midnightblue" points="60.01,-104.12 67,-112.08 66.51,-101.5 60.01,-104.12"/>
</g>
<!-- Node2&#45;&gt;Node1 -->
<g id="edge3" class="edge">
<title>Node2&#45;&gt;Node1</title>
<path fill="none" stroke="midnightblue" d="M76.03,-102.1C75.4,-93.14 75.84,-82.86 77.37,-75.75"/>
<polygon fill="midnightblue" stroke="midnightblue" points="72.57,-102.62 77.33,-112.08 79.51,-101.71 72.57,-102.62"/>
</g>
<!-- Node2&#45;&gt;Node1 -->
<g id="edge4" class="edge">
<title>Node2&#45;&gt;Node1</title>
<path fill="none" stroke="midnightblue" d="M88.97,-102.1C89.6,-93.14 89.16,-82.86 87.63,-75.75"/>
<polygon fill="midnightblue" stroke="midnightblue" points="85.49,-101.71 87.67,-112.08 92.43,-102.62 85.49,-101.71"/>
</g>
<!-- Node2&#45;&gt;Node1 -->
<g id="edge5" class="edge">
<title>Node2&#45;&gt;Node1</title>
<path fill="none" stroke="midnightblue" d="M101.79,-102.69C103.87,-93.59 102.57,-83.01 97.89,-75.75"/>
<polygon fill="midnightblue" stroke="midnightblue" points="98.49,-101.5 98,-112.08 104.99,-104.12 98.49,-101.5"/>
</g>
</g>
</svg>
