<?xml version="1.0" encoding="UTF-8" standalone="no"?>
<!DOCTYPE svg PUBLIC "-//W3C//DTD SVG 1.1//EN"
 "http://www.w3.org/Graphics/SVG/1.1/DTD/svg11.dtd">
<!-- Generated by graphviz version 2.43.0 (0)
 -->
<!-- Title: fiftyone\pipeline\devicedetection\DeviceDetectionOnPremise Pages: 1 -->
<svg width="234pt" height="220pt"
 viewBox="0.00 0.00 234.00 220.00" xmlns="http://www.w3.org/2000/svg" xmlns:xlink="http://www.w3.org/1999/xlink">
<g id="graph0" class="graph" transform="scale(1 1) rotate(0) translate(4 216)">
<title>fiftyone\pipeline\devicedetection\DeviceDetectionOnPremise</title>
<!-- Node2 -->
<g id="node1" class="node">
<title>Node2</title>
<g id="a_node1"><a xlink:title=" ">
<polygon fill="#bfbfbf" stroke="black" points="0,-0.5 0,-30.5 176,-30.5 176,-0.5 0,-0.5"/>
<text text-anchor="start" x="8" y="-18.5" font-family="Helvetica,sans-Serif" font-size="10.00">fiftyone\pipeline\devicedetection</text>
<text text-anchor="middle" x="88" y="-7.5" font-family="Helvetica,sans-Serif" font-size="10.00">\DeviceDetectionOnPremise</text>
</a>
</g>
</g>
<!-- Node3 -->
<g id="node2" class="node">
<title>Node3</title>
<g id="a_node2"><a xlink:title=" ">
<polygon fill="none" stroke="#bfbfbf" points="32,-78.5 32,-97.5 82,-97.5 82,-78.5 32,-78.5"/>
<text text-anchor="middle" x="57" y="-85.5" font-family="Helvetica,sans-Serif" font-size="10.00">Engine</text>
</a>
</g>
</g>
<!-- Node3&#45;&gt;Node2 -->
<g id="edge1" class="edge">
<title>Node3&#45;&gt;Node2</title>
<path fill="none" stroke="midnightblue" d="M64.93,-68.96C70.18,-57.03 76.96,-41.61 81.81,-30.58"/>
<polygon fill="midnightblue" stroke="midnightblue" points="61.62,-67.79 60.8,-78.36 68.03,-70.61 61.62,-67.79"/>
</g>
<!-- Node4 -->
<g id="node3" class="node">
<title>Node4</title>
<g id="a_node3"><a xlink:href="class_engine_hash_swig.html" target="_top" xlink:title=" ">
<polygon fill="none" stroke="black" points="100,-78.5 100,-97.5 198,-97.5 198,-78.5 100,-78.5"/>
<text text-anchor="middle" x="149" y="-85.5" font-family="Helvetica,sans-Serif" font-size="10.00">EngineHashSwig</text>
</a>
</g>
</g>
<!-- Node4&#45;&gt;Node2 -->
<g id="edge2" class="edge">
<title>Node4&#45;&gt;Node2</title>
<path fill="none" stroke="#9a32cd" stroke-dasharray="5,2" d="M134.93,-70.74C124.43,-58.6 110.2,-42.16 100.18,-30.58"/>
<polygon fill="#9a32cd" stroke="#9a32cd" points="132.33,-73.08 141.52,-78.36 137.62,-68.5 132.33,-73.08"/>
<text text-anchor="middle" x="144.5" y="-52" font-family="Helvetica,sans-Serif" font-size="10.00"> $engine</text>
</g>
<!-- Node5 -->
<g id="node4" class="node">
<title>Node5</title>
<g id="a_node4"><a xlink:href="class_engine_device_detection_swig.html" target="_top" xlink:title=" ">
<polygon fill="none" stroke="black" points="72,-135.5 72,-154.5 226,-154.5 226,-135.5 72,-135.5"/>
<text text-anchor="middle" x="149" y="-142.5" font-family="Helvetica,sans-Serif" font-size="10.00">EngineDeviceDetectionSwig</text>
</a>
</g>
</g>
<!-- Node5&#45;&gt;Node4 -->
<g id="edge3" class="edge">
<title>Node5&#45;&gt;Node4</title>
<path fill="none" stroke="midnightblue" d="M129.87,-126.03C127.55,-116.53 128.83,-105.3 133.73,-97.71"/>
<polygon fill="midnightblue" stroke="midnightblue" points="126.71,-127.54 133.81,-135.41 133.16,-124.83 126.71,-127.54"/>
</g>
<!-- Node5&#45;&gt;Node4 -->
<g id="edge8" class="edge">
<title>Node5&#45;&gt;Node4</title>
<path fill="none" stroke="midnightblue" d="M142.58,-125.42C141.87,-116.05 142.31,-105.14 143.91,-97.71"/>
<polygon fill="midnightblue" stroke="midnightblue" points="139.12,-125.97 143.94,-135.41 146.05,-125.03 139.12,-125.97"/>
</g>
<!-- Node5&#45;&gt;Node4 -->
<g id="edge9" class="edge">
<title>Node5&#45;&gt;Node4</title>
<path fill="none" stroke="midnightblue" d="M155.42,-125.42C156.13,-116.05 155.69,-105.14 154.09,-97.71"/>
<polygon fill="midnightblue" stroke="midnightblue" points="151.95,-125.03 154.06,-135.41 158.88,-125.97 151.95,-125.03"/>
</g>
<!-- Node5&#45;&gt;Node4 -->
<g id="edge10" class="edge">
<title>Node5&#45;&gt;Node4</title>
<path fill="none" stroke="midnightblue" d="M168.13,-126.03C170.45,-116.53 169.17,-105.3 164.27,-97.71"/>
<polygon fill="midnightblue" stroke="midnightblue" points="164.84,-124.83 164.19,-135.41 171.29,-127.54 164.84,-124.83"/>
</g>
<!-- Node6 -->
<g id="node5" class="node">
<title>Node6</title>
<g id="a_node5"><a xlink:href="class_engine_base_swig.html" target="_top" xlink:title=" ">
<polygon fill="none" stroke="black" points="100.5,-192.5 100.5,-211.5 197.5,-211.5 197.5,-192.5 100.5,-192.5"/>
<text text-anchor="middle" x="149" y="-199.5" font-family="Helvetica,sans-Serif" font-size="10.00">EngineBaseSwig</text>
</a>
</g>
</g>
<!-- Node6&#45;&gt;Node5 -->
<g id="edge4" class="edge">
<title>Node6&#45;&gt;Node5</title>
<path fill="none" stroke="midnightblue" d="M129.87,-183.03C127.55,-173.53 128.83,-162.3 133.73,-154.71"/>
<polygon fill="midnightblue" stroke="midnightblue" points="126.71,-184.54 133.81,-192.41 133.16,-181.83 126.71,-184.54"/>
</g>
<!-- Node6&#45;&gt;Node5 -->
<g id="edge5" class="edge">
<title>Node6&#45;&gt;Node5</title>
<path fill="none" stroke="midnightblue" d="M142.58,-182.42C141.87,-173.05 142.31,-162.14 143.91,-154.71"/>
<polygon fill="midnightblue" stroke="midnightblue" points="139.12,-182.97 143.94,-192.41 146.05,-182.03 139.12,-182.97"/>
</g>
<!-- Node6&#45;&gt;Node5 -->
<g id="edge6" class="edge">
<title>Node6&#45;&gt;Node5</title>
<path fill="none" stroke="midnightblue" d="M155.42,-182.42C156.13,-173.05 155.69,-162.14 154.09,-154.71"/>
<polygon fill="midnightblue" stroke="midnightblue" points="151.95,-182.03 154.06,-192.41 158.88,-182.97 151.95,-182.03"/>
</g>
<!-- Node6&#45;&gt;Node5 -->
<g id="edge7" class="edge">
<title>Node6&#45;&gt;Node5</title>
<path fill="none" stroke="midnightblue" d="M168.13,-183.03C170.45,-173.53 169.17,-162.3 164.27,-154.71"/>
<polygon fill="midnightblue" stroke="midnightblue" points="164.84,-181.83 164.19,-192.41 171.29,-184.54 164.84,-181.83"/>
</g>
</g>
</svg>
