<?xml version="1.0" encoding="UTF-8" standalone="no"?>
<!DOCTYPE svg PUBLIC "-//W3C//DTD SVG 1.1//EN"
 "http://www.w3.org/Graphics/SVG/1.1/DTD/svg11.dtd">
<!-- Generated by graphviz version 2.43.0 (0)
 -->
<!-- Title: EngineDeviceDetectionSwig Pages: 1 -->
<svg width="162pt" height="84pt"
 viewBox="0.00 0.00 162.00 84.00" xmlns="http://www.w3.org/2000/svg" xmlns:xlink="http://www.w3.org/1999/xlink">
<g id="graph0" class="graph" transform="scale(1 1) rotate(0) translate(4 80)">
<title>EngineDeviceDetectionSwig</title>
<!-- Node3 -->
<g id="node1" class="node">
<title>Node3</title>
<g id="a_node1"><a xlink:title=" ">
<polygon fill="#bfbfbf" stroke="black" points="0,-0.5 0,-19.5 154,-19.5 154,-0.5 0,-0.5"/>
<text text-anchor="middle" x="77" y="-7.5" font-family="Helvetica,sans-Serif" font-size="10.00">EngineDeviceDetectionSwig</text>
</a>
</g>
</g>
<!-- Node4 -->
<g id="node2" class="node">
<title>Node4</title>
<g id="a_node2"><a xlink:href="class_engine_base_swig.html" target="_top" xlink:title=" ">
<polygon fill="none" stroke="black" points="28.5,-56.5 28.5,-75.5 125.5,-75.5 125.5,-56.5 28.5,-56.5"/>
<text text-anchor="middle" x="77" y="-63.5" font-family="Helvetica,sans-Serif" font-size="10.00">EngineBaseSwig</text>
</a>
</g>
</g>
<!-- Node4&#45;&gt;Node3 -->
<g id="edge1" class="edge">
<title>Node4&#45;&gt;Node3</title>
<path fill="none" stroke="midnightblue" d="M57.71,-46.69C55.63,-37.59 56.93,-27.01 61.61,-19.75"/>
<polygon fill="midnightblue" stroke="midnightblue" points="54.51,-48.12 61.5,-56.08 61.01,-45.5 54.51,-48.12"/>
</g>
<!-- Node4&#45;&gt;Node3 -->
<g id="edge2" class="edge">
<title>Node4&#45;&gt;Node3</title>
<path fill="none" stroke="midnightblue" d="M70.53,-46.1C69.9,-37.14 70.34,-26.86 71.87,-19.75"/>
<polygon fill="midnightblue" stroke="midnightblue" points="67.07,-46.62 71.83,-56.08 74.01,-45.71 67.07,-46.62"/>
</g>
<!-- Node4&#45;&gt;Node3 -->
<g id="edge3" class="edge">
<title>Node4&#45;&gt;Node3</title>
<path fill="none" stroke="midnightblue" d="M83.47,-46.1C84.1,-37.14 83.66,-26.86 82.13,-19.75"/>
<polygon fill="midnightblue" stroke="midnightblue" points="79.99,-45.71 82.17,-56.08 86.93,-46.62 79.99,-45.71"/>
</g>
<!-- Node4&#45;&gt;Node3 -->
<g id="edge4" class="edge">
<title>Node4&#45;&gt;Node3</title>
<path fill="none" stroke="midnightblue" d="M96.29,-46.69C98.37,-37.59 97.07,-27.01 92.39,-19.75"/>
<polygon fill="midnightblue" stroke="midnightblue" points="92.99,-45.5 92.5,-56.08 99.49,-48.12 92.99,-45.5"/>
</g>
</g>
</svg>
