<?xml version="1.0" encoding="UTF-8" standalone="no"?>
<!DOCTYPE svg PUBLIC "-//W3C//DTD SVG 1.1//EN"
 "http://www.w3.org/Graphics/SVG/1.1/DTD/svg11.dtd">
<!-- Generated by graphviz version 2.43.0 (0)
 -->
<!-- Title: fiftyone\pipeline\devicedetection\SwigData Pages: 1 -->
<svg width="184pt" height="173pt"
 viewBox="0.00 0.00 184.00 173.00" xmlns="http://www.w3.org/2000/svg" xmlns:xlink="http://www.w3.org/1999/xlink">
<g id="graph0" class="graph" transform="scale(1 1) rotate(0) translate(4 169)">
<title>fiftyone\pipeline\devicedetection\SwigData</title>
<!-- Node3 -->
<g id="node1" class="node">
<title>Node3</title>
<g id="a_node1"><a xlink:title=" ">
<polygon fill="#bfbfbf" stroke="black" points="0,-0.5 0,-30.5 176,-30.5 176,-0.5 0,-0.5"/>
<text text-anchor="start" x="8" y="-18.5" font-family="Helvetica,sans-Serif" font-size="10.00">fiftyone\pipeline\devicedetection</text>
<text text-anchor="middle" x="88" y="-7.5" font-family="Helvetica,sans-Serif" font-size="10.00">\SwigData</text>
</a>
</g>
</g>
<!-- Node4 -->
<g id="node2" class="node">
<title>Node4</title>
<g id="a_node2"><a xlink:href="classfiftyone_1_1pipeline_1_1engines_1_1_aspect_data.html" target="_top" xlink:title="aspectData extends elementData by adding the option of a missing property service It also allows prop...">
<polygon fill="none" stroke="black" points="19.5,-67.5 19.5,-97.5 156.5,-97.5 156.5,-67.5 19.5,-67.5"/>
<text text-anchor="start" x="27.5" y="-85.5" font-family="Helvetica,sans-Serif" font-size="10.00">fiftyone\pipeline\engines</text>
<text text-anchor="middle" x="88" y="-74.5" font-family="Helvetica,sans-Serif" font-size="10.00">\AspectData</text>
</a>
</g>
</g>
<!-- Node4&#45;&gt;Node3 -->
<g id="edge1" class="edge">
<title>Node4&#45;&gt;Node3</title>
<path fill="none" stroke="midnightblue" d="M88,-57.11C88,-48.15 88,-38.32 88,-30.58"/>
<polygon fill="midnightblue" stroke="midnightblue" points="84.5,-57.4 88,-67.4 91.5,-57.4 84.5,-57.4"/>
</g>
<!-- Node5 -->
<g id="node3" class="node">
<title>Node5</title>
<g id="a_node3"><a xlink:href="classfiftyone_1_1pipeline_1_1core_1_1_element_data.html" target="_top" xlink:title="Stores information created by a FlowElement based on FlowData.">
<polygon fill="none" stroke="black" points="28.5,-134.5 28.5,-164.5 147.5,-164.5 147.5,-134.5 28.5,-134.5"/>
<text text-anchor="start" x="36.5" y="-152.5" font-family="Helvetica,sans-Serif" font-size="10.00">fiftyone\pipeline\core</text>
<text text-anchor="middle" x="88" y="-141.5" font-family="Helvetica,sans-Serif" font-size="10.00">\ElementData</text>
</a>
</g>
</g>
<!-- Node5&#45;&gt;Node4 -->
<g id="edge2" class="edge">
<title>Node5&#45;&gt;Node4</title>
<path fill="none" stroke="midnightblue" d="M88,-124.11C88,-115.15 88,-105.32 88,-97.58"/>
<polygon fill="midnightblue" stroke="midnightblue" points="84.5,-124.4 88,-134.4 91.5,-124.4 84.5,-124.4"/>
</g>
</g>
</svg>
