<?xml version="1.0" encoding="UTF-8" standalone="no"?>
<!DOCTYPE svg PUBLIC "-//W3C//DTD SVG 1.1//EN"
 "http://www.w3.org/Graphics/SVG/1.1/DTD/svg11.dtd">
<!-- Generated by graphviz version 2.43.0 (0)
 -->
<!-- Title: fiftyone\pipeline\core\FlowElement Pages: 1 -->
<svg width="518pt" height="374pt"
 viewBox="0.00 0.00 518.00 373.50" xmlns="http://www.w3.org/2000/svg" xmlns:xlink="http://www.w3.org/1999/xlink">
<g id="graph0" class="graph" transform="scale(1 1) rotate(0) translate(4 369.5)">
<title>fiftyone\pipeline\core\FlowElement</title>
<!-- Node0 -->
<g id="node1" class="node">
<title>Node0</title>
<g id="a_node1"><a xlink:title="A FlowElement is placed inside a Pipeline It receives Evidence via a FlowData object It uses this to ...">
<polygon fill="#bfbfbf" stroke="black" points="0,-195.5 0,-225.5 119,-225.5 119,-195.5 0,-195.5"/>
<text text-anchor="start" x="8" y="-213.5" font-family="Helvetica,sans-Serif" font-size="10.00">fiftyone\pipeline\core</text>
<text text-anchor="middle" x="59.5" y="-202.5" font-family="Helvetica,sans-Serif" font-size="10.00">\FlowElement</text>
</a>
</g>
</g>
<!-- Node1 -->
<g id="node2" class="node">
<title>Node1</title>
<g id="a_node2"><a xlink:href="class_astrology_flow_element.html" target="_top" xlink:title="[class] [declaration]">
<polygon fill="none" stroke="black" points="163,-346 163,-365 290,-365 290,-346 163,-346"/>
<text text-anchor="middle" x="226.5" y="-353" font-family="Helvetica,sans-Serif" font-size="10.00">AstrologyFlowElement</text>
</a>
</g>
</g>
<!-- Node0&#45;&gt;Node1 -->
<g id="edge1" class="edge">
<title>Node0&#45;&gt;Node1</title>
<path fill="none" stroke="midnightblue" d="M72.35,-234.88C87.53,-263.53 116.56,-310.46 155,-336.5 160.77,-340.41 167.32,-343.52 174.04,-345.98"/>
<polygon fill="midnightblue" stroke="midnightblue" points="75.43,-233.21 67.74,-225.92 69.2,-236.41 75.43,-233.21"/>
</g>
<!-- Node2 -->
<g id="node3" class="node">
<title>Node2</title>
<g id="a_node3"><a xlink:href="class_example_flow_element_a.html" target="_top" xlink:title=" ">
<polygon fill="none" stroke="black" points="161.5,-308 161.5,-327 291.5,-327 291.5,-308 161.5,-308"/>
<text text-anchor="middle" x="226.5" y="-315" font-family="Helvetica,sans-Serif" font-size="10.00">ExampleFlowElementA</text>
</a>
</g>
</g>
<!-- Node0&#45;&gt;Node2 -->
<g id="edge2" class="edge">
<title>Node0&#45;&gt;Node2</title>
<path fill="none" stroke="midnightblue" d="M79.24,-233.38C96.82,-253.38 124.85,-281.77 155,-298.5 161.98,-302.37 169.8,-305.49 177.61,-307.99"/>
<polygon fill="midnightblue" stroke="midnightblue" points="81.76,-230.94 72.59,-225.64 76.45,-235.5 81.76,-230.94"/>
</g>
<!-- Node3 -->
<g id="node4" class="node">
<title>Node3</title>
<g id="a_node4"><a xlink:href="class_example_flow_element_b.html" target="_top" xlink:title=" ">
<polygon fill="none" stroke="black" points="161.5,-270 161.5,-289 291.5,-289 291.5,-270 161.5,-270"/>
<text text-anchor="middle" x="226.5" y="-277" font-family="Helvetica,sans-Serif" font-size="10.00">ExampleFlowElementB</text>
</a>
</g>
</g>
<!-- Node0&#45;&gt;Node3 -->
<g id="edge3" class="edge">
<title>Node0&#45;&gt;Node3</title>
<path fill="none" stroke="midnightblue" d="M94.22,-230.71C111.88,-240.67 134.11,-252.28 155,-260.5 164.2,-264.12 174.34,-267.3 183.99,-269.97"/>
<polygon fill="midnightblue" stroke="midnightblue" points="95.85,-227.61 85.44,-225.67 92.37,-233.68 95.85,-227.61"/>
</g>
<!-- Node4 -->
<g id="node5" class="node">
<title>Node4</title>
<g id="a_node5"><a xlink:href="classfiftyone_1_1pipeline_1_1core_1_1_javascript_builder_element.html" target="_top" xlink:title="The JavaScriptBuilder aggregates JavaScript properties from FlowElements in the Pipeline.">
<polygon fill="none" stroke="black" points="155,-220.5 155,-250.5 298,-250.5 298,-220.5 155,-220.5"/>
<text text-anchor="start" x="163" y="-238.5" font-family="Helvetica,sans-Serif" font-size="10.00">fiftyone\pipeline\core</text>
<text text-anchor="middle" x="226.5" y="-227.5" font-family="Helvetica,sans-Serif" font-size="10.00">\JavascriptBuilderElement</text>
</a>
</g>
</g>
<!-- Node0&#45;&gt;Node4 -->
<g id="edge4" class="edge">
<title>Node0&#45;&gt;Node4</title>
<path fill="none" stroke="midnightblue" d="M129.05,-220.89C137.59,-222.18 146.33,-223.51 154.91,-224.8"/>
<polygon fill="midnightblue" stroke="midnightblue" points="129.55,-217.42 119.14,-219.38 128.5,-224.34 129.55,-217.42"/>
</g>
<!-- Node5 -->
<g id="node6" class="node">
<title>Node5</title>
<g id="a_node6"><a xlink:href="classfiftyone_1_1pipeline_1_1core_1_1_json_bundler_element.html" target="_top" xlink:title="The JSONBundler aggregates all properties from FlowElements into a JSON object It is used for retriev...">
<polygon fill="none" stroke="black" points="167,-171.5 167,-201.5 286,-201.5 286,-171.5 167,-171.5"/>
<text text-anchor="start" x="175" y="-189.5" font-family="Helvetica,sans-Serif" font-size="10.00">fiftyone\pipeline\core</text>
<text text-anchor="middle" x="226.5" y="-178.5" font-family="Helvetica,sans-Serif" font-size="10.00">\JsonBundlerElement</text>
</a>
</g>
</g>
<!-- Node0&#45;&gt;Node5 -->
<g id="edge5" class="edge">
<title>Node0&#45;&gt;Node5</title>
<path fill="none" stroke="midnightblue" d="M129.07,-200.53C141.59,-198.7 154.56,-196.82 166.77,-195.04"/>
<polygon fill="midnightblue" stroke="midnightblue" points="128.53,-197.07 119.14,-201.97 129.54,-203.99 128.53,-197.07"/>
</g>
<!-- Node6 -->
<g id="node7" class="node">
<title>Node6</title>
<g id="a_node7"><a xlink:href="classfiftyone_1_1pipeline_1_1core_1_1_sequence_element.html" target="_top" xlink:title="The SequenceElement stores session data regarding requests for client side JavaScript from the JavaSc...">
<polygon fill="none" stroke="black" points="167,-122.5 167,-152.5 286,-152.5 286,-122.5 167,-122.5"/>
<text text-anchor="start" x="175" y="-140.5" font-family="Helvetica,sans-Serif" font-size="10.00">fiftyone\pipeline\core</text>
<text text-anchor="middle" x="226.5" y="-129.5" font-family="Helvetica,sans-Serif" font-size="10.00">\SequenceElement</text>
</a>
</g>
</g>
<!-- Node0&#45;&gt;Node6 -->
<g id="edge6" class="edge">
<title>Node0&#45;&gt;Node6</title>
<path fill="none" stroke="midnightblue" d="M96.96,-190.59C114.29,-181.49 135.45,-170.89 155,-162.5 163.12,-159.02 171.89,-155.62 180.41,-152.51"/>
<polygon fill="midnightblue" stroke="midnightblue" points="94.95,-187.69 87.76,-195.47 98.23,-193.88 94.95,-187.69"/>
</g>
<!-- Node7 -->
<g id="node8" class="node">
<title>Node7</title>
<g id="a_node8"><a xlink:href="classfiftyone_1_1pipeline_1_1core_1_1_set_header_element.html" target="_top" xlink:title="Set response headers element class.">
<polygon fill="none" stroke="black" points="167,-73.5 167,-103.5 286,-103.5 286,-73.5 167,-73.5"/>
<text text-anchor="start" x="175" y="-91.5" font-family="Helvetica,sans-Serif" font-size="10.00">fiftyone\pipeline\core</text>
<text text-anchor="middle" x="226.5" y="-80.5" font-family="Helvetica,sans-Serif" font-size="10.00">\SetHeaderElement</text>
</a>
</g>
</g>
<!-- Node0&#45;&gt;Node7 -->
<g id="edge7" class="edge">
<title>Node0&#45;&gt;Node7</title>
<path fill="none" stroke="midnightblue" d="M77.97,-187.19C95.36,-165.44 123.89,-133.42 155,-113.5 160.91,-109.72 167.46,-106.42 174.12,-103.57"/>
<polygon fill="midnightblue" stroke="midnightblue" points="75.07,-185.23 71.66,-195.26 80.58,-189.54 75.07,-185.23"/>
</g>
<!-- Node8 -->
<g id="node9" class="node">
<title>Node8</title>
<g id="a_node9"><a xlink:href="classfiftyone_1_1pipeline_1_1engines_1_1_engine.html" target="_top" xlink:title="An engine is an extension of the Pipeline Core flowElement class It allows for a cache,...">
<polygon fill="none" stroke="black" points="158,-24.5 158,-54.5 295,-54.5 295,-24.5 158,-24.5"/>
<text text-anchor="start" x="166" y="-42.5" font-family="Helvetica,sans-Serif" font-size="10.00">fiftyone\pipeline\engines</text>
<text text-anchor="middle" x="226.5" y="-31.5" font-family="Helvetica,sans-Serif" font-size="10.00">\Engine</text>
</a>
</g>
</g>
<!-- Node0&#45;&gt;Node8 -->
<g id="edge8" class="edge">
<title>Node0&#45;&gt;Node8</title>
<path fill="none" stroke="midnightblue" d="M70.43,-185.77C84.58,-153.49 113.52,-97.26 155,-64.5 159.89,-60.64 165.43,-57.34 171.19,-54.54"/>
<polygon fill="midnightblue" stroke="midnightblue" points="67.05,-184.77 66.36,-195.35 73.49,-187.51 67.05,-184.77"/>
</g>
<!-- Node9 -->
<g id="node10" class="node">
<title>Node9</title>
<g id="a_node10"><a xlink:href="classfiftyone_1_1pipeline_1_1devicedetection_1_1_device_detection_on_premise.html" target="_top" xlink:title=" ">
<polygon fill="none" stroke="black" points="334,-49.5 334,-79.5 510,-79.5 510,-49.5 334,-49.5"/>
<text text-anchor="start" x="342" y="-67.5" font-family="Helvetica,sans-Serif" font-size="10.00">fiftyone\pipeline\devicedetection</text>
<text text-anchor="middle" x="422" y="-56.5" font-family="Helvetica,sans-Serif" font-size="10.00">\DeviceDetectionOnPremise</text>
</a>
</g>
</g>
<!-- Node8&#45;&gt;Node9 -->
<g id="edge9" class="edge">
<title>Node8&#45;&gt;Node9</title>
<path fill="none" stroke="midnightblue" d="M305.3,-49.55C314.73,-50.77 324.42,-52.02 333.97,-53.26"/>
<polygon fill="midnightblue" stroke="midnightblue" points="305.54,-46.05 295.18,-48.24 304.65,-53 305.54,-46.05"/>
</g>
<!-- Node10 -->
<g id="node11" class="node">
<title>Node10</title>
<g id="a_node11"><a xlink:href="classfiftyone_1_1pipeline_1_1engines_1_1_cloud_engine_base.html" target="_top" xlink:title="Intermediary between Engine and CloudEngine classes.">
<polygon fill="none" stroke="black" points="353.5,-0.5 353.5,-30.5 490.5,-30.5 490.5,-0.5 353.5,-0.5"/>
<text text-anchor="start" x="361.5" y="-18.5" font-family="Helvetica,sans-Serif" font-size="10.00">fiftyone\pipeline\engines</text>
<text text-anchor="middle" x="422" y="-7.5" font-family="Helvetica,sans-Serif" font-size="10.00">\CloudEngineBase</text>
</a>
</g>
</g>
<!-- Node8&#45;&gt;Node10 -->
<g id="edge10" class="edge">
<title>Node8&#45;&gt;Node10</title>
<path fill="none" stroke="midnightblue" d="M305.48,-29.83C321.34,-27.86 337.9,-25.81 353.36,-23.89"/>
<polygon fill="midnightblue" stroke="midnightblue" points="304.67,-26.4 295.18,-31.11 305.53,-33.35 304.67,-26.4"/>
</g>
</g>
</svg>
