<?xml version="1.0" encoding="UTF-8" standalone="no"?>
<!DOCTYPE svg PUBLIC "-//W3C//DTD SVG 1.1//EN"
 "http://www.w3.org/Graphics/SVG/1.1/DTD/svg11.dtd">
<!-- Generated by graphviz version 2.43.0 (0)
 -->
<!-- Title: ResultsDeviceDetectionSwig Pages: 1 -->
<svg width="165pt" height="84pt"
 viewBox="0.00 0.00 165.00 84.00" xmlns="http://www.w3.org/2000/svg" xmlns:xlink="http://www.w3.org/1999/xlink">
<g id="graph0" class="graph" transform="scale(1 1) rotate(0) translate(4 80)">
<title>ResultsDeviceDetectionSwig</title>
<!-- Node3 -->
<g id="node1" class="node">
<title>Node3</title>
<g id="a_node1"><a xlink:title=" ">
<polygon fill="#bfbfbf" stroke="black" points="0,-0.5 0,-19.5 157,-19.5 157,-0.5 0,-0.5"/>
<text text-anchor="middle" x="78.5" y="-7.5" font-family="Helvetica,sans-Serif" font-size="10.00">ResultsDeviceDetectionSwig</text>
</a>
</g>
</g>
<!-- Node4 -->
<g id="node2" class="node">
<title>Node4</title>
<g id="a_node2"><a xlink:href="class_results_base_swig.html" target="_top" xlink:title=" ">
<polygon fill="none" stroke="black" points="28.5,-56.5 28.5,-75.5 128.5,-75.5 128.5,-56.5 28.5,-56.5"/>
<text text-anchor="middle" x="78.5" y="-63.5" font-family="Helvetica,sans-Serif" font-size="10.00">ResultsBaseSwig</text>
</a>
</g>
</g>
<!-- Node4&#45;&gt;Node3 -->
<g id="edge1" class="edge">
<title>Node4&#45;&gt;Node3</title>
<path fill="none" stroke="midnightblue" d="M59.21,-46.69C57.13,-37.59 58.43,-27.01 63.11,-19.75"/>
<polygon fill="midnightblue" stroke="midnightblue" points="56.01,-48.12 63,-56.08 62.51,-45.5 56.01,-48.12"/>
</g>
<!-- Node4&#45;&gt;Node3 -->
<g id="edge2" class="edge">
<title>Node4&#45;&gt;Node3</title>
<path fill="none" stroke="midnightblue" d="M72.03,-46.1C71.4,-37.14 71.84,-26.86 73.37,-19.75"/>
<polygon fill="midnightblue" stroke="midnightblue" points="68.57,-46.62 73.33,-56.08 75.51,-45.71 68.57,-46.62"/>
</g>
<!-- Node4&#45;&gt;Node3 -->
<g id="edge3" class="edge">
<title>Node4&#45;&gt;Node3</title>
<path fill="none" stroke="midnightblue" d="M84.97,-46.1C85.6,-37.14 85.16,-26.86 83.63,-19.75"/>
<polygon fill="midnightblue" stroke="midnightblue" points="81.49,-45.71 83.67,-56.08 88.43,-46.62 81.49,-45.71"/>
</g>
<!-- Node4&#45;&gt;Node3 -->
<g id="edge4" class="edge">
<title>Node4&#45;&gt;Node3</title>
<path fill="none" stroke="midnightblue" d="M97.79,-46.69C99.87,-37.59 98.57,-27.01 93.89,-19.75"/>
<polygon fill="midnightblue" stroke="midnightblue" points="94.49,-45.5 94,-56.08 100.99,-48.12 94.49,-45.5"/>
</g>
</g>
</svg>
