<?xml version="1.0" encoding="UTF-8" standalone="no"?>
<!DOCTYPE svg PUBLIC "-//W3C//DTD SVG 1.1//EN"
 "http://www.w3.org/Graphics/SVG/1.1/DTD/svg11.dtd">
<!-- Generated by graphviz version 2.43.0 (0)
 -->
<!-- Title: ConfigDeviceDetectionSwig Pages: 1 -->
<svg width="160pt" height="84pt"
 viewBox="0.00 0.00 160.00 84.00" xmlns="http://www.w3.org/2000/svg" xmlns:xlink="http://www.w3.org/1999/xlink">
<g id="graph0" class="graph" transform="scale(1 1) rotate(0) translate(4 80)">
<title>ConfigDeviceDetectionSwig</title>
<!-- Node3 -->
<g id="node1" class="node">
<title>Node3</title>
<g id="a_node1"><a xlink:title=" ">
<polygon fill="#bfbfbf" stroke="black" points="0,-0.5 0,-19.5 152,-19.5 152,-0.5 0,-0.5"/>
<text text-anchor="middle" x="76" y="-7.5" font-family="Helvetica,sans-Serif" font-size="10.00">ConfigDeviceDetectionSwig</text>
</a>
</g>
</g>
<!-- Node4 -->
<g id="node2" class="node">
<title>Node4</title>
<g id="a_node2"><a xlink:href="class_config_base_swig.html" target="_top" xlink:title=" ">
<polygon fill="none" stroke="black" points="28.5,-56.5 28.5,-75.5 123.5,-75.5 123.5,-56.5 28.5,-56.5"/>
<text text-anchor="middle" x="76" y="-63.5" font-family="Helvetica,sans-Serif" font-size="10.00">ConfigBaseSwig</text>
</a>
</g>
</g>
<!-- Node4&#45;&gt;Node3 -->
<g id="edge1" class="edge">
<title>Node4&#45;&gt;Node3</title>
<path fill="none" stroke="midnightblue" d="M56.71,-46.69C54.63,-37.59 55.93,-27.01 60.61,-19.75"/>
<polygon fill="midnightblue" stroke="midnightblue" points="53.51,-48.12 60.5,-56.08 60.01,-45.5 53.51,-48.12"/>
</g>
<!-- Node4&#45;&gt;Node3 -->
<g id="edge2" class="edge">
<title>Node4&#45;&gt;Node3</title>
<path fill="none" stroke="midnightblue" d="M69.53,-46.1C68.9,-37.14 69.34,-26.86 70.87,-19.75"/>
<polygon fill="midnightblue" stroke="midnightblue" points="66.07,-46.62 70.83,-56.08 73.01,-45.71 66.07,-46.62"/>
</g>
<!-- Node4&#45;&gt;Node3 -->
<g id="edge3" class="edge">
<title>Node4&#45;&gt;Node3</title>
<path fill="none" stroke="midnightblue" d="M82.47,-46.1C83.1,-37.14 82.66,-26.86 81.13,-19.75"/>
<polygon fill="midnightblue" stroke="midnightblue" points="78.99,-45.71 81.17,-56.08 85.93,-46.62 78.99,-45.71"/>
</g>
<!-- Node4&#45;&gt;Node3 -->
<g id="edge4" class="edge">
<title>Node4&#45;&gt;Node3</title>
<path fill="none" stroke="midnightblue" d="M95.29,-46.69C97.37,-37.59 96.07,-27.01 91.39,-19.75"/>
<polygon fill="midnightblue" stroke="midnightblue" points="91.99,-45.5 91.5,-56.08 98.49,-48.12 91.99,-45.5"/>
</g>
</g>
</svg>
