<?xml version="1.0" encoding="UTF-8" standalone="no"?>
<!DOCTYPE svg PUBLIC "-//W3C//DTD SVG 1.1//EN"
 "http://www.w3.org/Graphics/SVG/1.1/DTD/svg11.dtd">
<!-- Generated by graphviz version 2.43.0 (0)
 -->
<!-- Title: fiftyone\pipeline\core\ElementData Pages: 1 -->
<svg width="512pt" height="112pt"
 viewBox="0.00 0.00 512.00 112.00" xmlns="http://www.w3.org/2000/svg" xmlns:xlink="http://www.w3.org/1999/xlink">
<g id="graph0" class="graph" transform="scale(1 1) rotate(0) translate(4 108)">
<title>fiftyone\pipeline\core\ElementData</title>
<!-- Node0 -->
<g id="node1" class="node">
<title>Node0</title>
<g id="a_node1"><a xlink:title="Stores information created by a FlowElement based on FlowData.">
<polygon fill="#bfbfbf" stroke="black" points="0,-48.5 0,-78.5 119,-78.5 119,-48.5 0,-48.5"/>
<text text-anchor="start" x="8" y="-66.5" font-family="Helvetica,sans-Serif" font-size="10.00">fiftyone\pipeline\core</text>
<text text-anchor="middle" x="59.5" y="-55.5" font-family="Helvetica,sans-Serif" font-size="10.00">\ElementData</text>
</a>
</g>
</g>
<!-- Node1 -->
<g id="node2" class="node">
<title>Node1</title>
<g id="a_node2"><a xlink:href="classfiftyone_1_1pipeline_1_1core_1_1_element_data_dictionary.html" target="_top" xlink:title="An extension of ElementData with dictionary object storage / lookup.">
<polygon fill="none" stroke="black" points="156.5,-73.5 156.5,-103.5 290.5,-103.5 290.5,-73.5 156.5,-73.5"/>
<text text-anchor="start" x="164.5" y="-91.5" font-family="Helvetica,sans-Serif" font-size="10.00">fiftyone\pipeline\core</text>
<text text-anchor="middle" x="223.5" y="-80.5" font-family="Helvetica,sans-Serif" font-size="10.00">\ElementDataDictionary</text>
</a>
</g>
</g>
<!-- Node0&#45;&gt;Node1 -->
<g id="edge1" class="edge">
<title>Node0&#45;&gt;Node1</title>
<path fill="none" stroke="midnightblue" d="M129.45,-74.14C138.41,-75.52 147.56,-76.94 156.47,-78.31"/>
<polygon fill="midnightblue" stroke="midnightblue" points="129.86,-70.66 119.44,-72.6 128.79,-77.58 129.86,-70.66"/>
</g>
<!-- Node2 -->
<g id="node3" class="node">
<title>Node2</title>
<g id="a_node3"><a xlink:href="classfiftyone_1_1pipeline_1_1engines_1_1_aspect_data.html" target="_top" xlink:title="aspectData extends elementData by adding the option of a missing property service It also allows prop...">
<polygon fill="none" stroke="black" points="155,-24.5 155,-54.5 292,-54.5 292,-24.5 155,-24.5"/>
<text text-anchor="start" x="163" y="-42.5" font-family="Helvetica,sans-Serif" font-size="10.00">fiftyone\pipeline\engines</text>
<text text-anchor="middle" x="223.5" y="-31.5" font-family="Helvetica,sans-Serif" font-size="10.00">\AspectData</text>
</a>
</g>
</g>
<!-- Node0&#45;&gt;Node2 -->
<g id="edge2" class="edge">
<title>Node0&#45;&gt;Node2</title>
<path fill="none" stroke="midnightblue" d="M129.54,-53.27C137.91,-52.03 146.46,-50.77 154.81,-49.53"/>
<polygon fill="midnightblue" stroke="midnightblue" points="128.82,-49.84 119.44,-54.77 129.85,-56.76 128.82,-49.84"/>
</g>
<!-- Node3 -->
<g id="node4" class="node">
<title>Node3</title>
<g id="a_node4"><a xlink:href="classfiftyone_1_1pipeline_1_1devicedetection_1_1_swig_data.html" target="_top" xlink:title=" ">
<polygon fill="none" stroke="black" points="328,-49.5 328,-79.5 504,-79.5 504,-49.5 328,-49.5"/>
<text text-anchor="start" x="336" y="-67.5" font-family="Helvetica,sans-Serif" font-size="10.00">fiftyone\pipeline\devicedetection</text>
<text text-anchor="middle" x="416" y="-56.5" font-family="Helvetica,sans-Serif" font-size="10.00">\SwigData</text>
</a>
</g>
</g>
<!-- Node2&#45;&gt;Node3 -->
<g id="edge3" class="edge">
<title>Node2&#45;&gt;Node3</title>
<path fill="none" stroke="midnightblue" d="M302.35,-49.72C310.75,-50.82 319.35,-51.95 327.86,-53.06"/>
<polygon fill="midnightblue" stroke="midnightblue" points="302.57,-46.22 292.2,-48.38 301.66,-53.16 302.57,-46.22"/>
</g>
<!-- Node4 -->
<g id="node5" class="node">
<title>Node4</title>
<g id="a_node5"><a xlink:href="classfiftyone_1_1pipeline_1_1engines_1_1_aspect_data_dictionary.html" target="_top" xlink:title="aspectData class extension that stores content as an array Similar to elementDataDictionary in the Pi...">
<polygon fill="none" stroke="black" points="347.5,-0.5 347.5,-30.5 484.5,-30.5 484.5,-0.5 347.5,-0.5"/>
<text text-anchor="start" x="355.5" y="-18.5" font-family="Helvetica,sans-Serif" font-size="10.00">fiftyone\pipeline\engines</text>
<text text-anchor="middle" x="416" y="-7.5" font-family="Helvetica,sans-Serif" font-size="10.00">\AspectDataDictionary</text>
</a>
</g>
</g>
<!-- Node2&#45;&gt;Node4 -->
<g id="edge4" class="edge">
<title>Node2&#45;&gt;Node4</title>
<path fill="none" stroke="midnightblue" d="M302.38,-29.69C317.24,-27.82 332.68,-25.87 347.2,-24.04"/>
<polygon fill="midnightblue" stroke="midnightblue" points="301.68,-26.25 292.2,-30.97 302.56,-33.19 301.68,-26.25"/>
</g>
</g>
</svg>
