<?xml version="1.0" encoding="UTF-8" standalone="no"?>
<!DOCTYPE svg PUBLIC "-//W3C//DTD SVG 1.1//EN"
 "http://www.w3.org/Graphics/SVG/1.1/DTD/svg11.dtd">
<!-- Generated by graphviz version 2.43.0 (0)
 -->
<!-- Title: fiftyone\pipeline\engines\Engine Pages: 1 -->
<svg width="512pt" height="88pt"
 viewBox="0.00 0.00 512.00 88.00" xmlns="http://www.w3.org/2000/svg" xmlns:xlink="http://www.w3.org/1999/xlink">
<g id="graph0" class="graph" transform="scale(1 1) rotate(0) translate(4 84)">
<title>fiftyone\pipeline\engines\Engine</title>
<!-- Node0 -->
<g id="node1" class="node">
<title>Node0</title>
<g id="a_node1"><a xlink:title="An engine is an extension of the Pipeline Core flowElement class It allows for a cache,...">
<polygon fill="#bfbfbf" stroke="black" points="155,-24.5 155,-54.5 292,-54.5 292,-24.5 155,-24.5"/>
<text text-anchor="start" x="163" y="-42.5" font-family="Helvetica,sans-Serif" font-size="10.00">fiftyone\pipeline\engines</text>
<text text-anchor="middle" x="223.5" y="-31.5" font-family="Helvetica,sans-Serif" font-size="10.00">\Engine</text>
</a>
</g>
</g>
<!-- Node2 -->
<g id="node3" class="node">
<title>Node2</title>
<g id="a_node3"><a xlink:href="classfiftyone_1_1pipeline_1_1devicedetection_1_1_device_detection_on_premise.html" target="_top" xlink:title=" ">
<polygon fill="none" stroke="black" points="328,-49.5 328,-79.5 504,-79.5 504,-49.5 328,-49.5"/>
<text text-anchor="start" x="336" y="-67.5" font-family="Helvetica,sans-Serif" font-size="10.00">fiftyone\pipeline\devicedetection</text>
<text text-anchor="middle" x="416" y="-56.5" font-family="Helvetica,sans-Serif" font-size="10.00">\DeviceDetectionOnPremise</text>
</a>
</g>
</g>
<!-- Node0&#45;&gt;Node2 -->
<g id="edge2" class="edge">
<title>Node0&#45;&gt;Node2</title>
<path fill="none" stroke="midnightblue" d="M302.35,-49.72C310.75,-50.82 319.35,-51.95 327.86,-53.06"/>
<polygon fill="midnightblue" stroke="midnightblue" points="302.57,-46.22 292.2,-48.38 301.66,-53.16 302.57,-46.22"/>
</g>
<!-- Node3 -->
<g id="node4" class="node">
<title>Node3</title>
<g id="a_node4"><a xlink:href="classfiftyone_1_1pipeline_1_1engines_1_1_cloud_engine_base.html" target="_top" xlink:title="Intermediary between Engine and CloudEngine classes.">
<polygon fill="none" stroke="black" points="347.5,-0.5 347.5,-30.5 484.5,-30.5 484.5,-0.5 347.5,-0.5"/>
<text text-anchor="start" x="355.5" y="-18.5" font-family="Helvetica,sans-Serif" font-size="10.00">fiftyone\pipeline\engines</text>
<text text-anchor="middle" x="416" y="-7.5" font-family="Helvetica,sans-Serif" font-size="10.00">\CloudEngineBase</text>
</a>
</g>
</g>
<!-- Node0&#45;&gt;Node3 -->
<g id="edge3" class="edge">
<title>Node0&#45;&gt;Node3</title>
<path fill="none" stroke="midnightblue" d="M302.38,-29.69C317.24,-27.82 332.68,-25.87 347.2,-24.04"/>
<polygon fill="midnightblue" stroke="midnightblue" points="301.68,-26.25 292.2,-30.97 302.56,-33.19 301.68,-26.25"/>
</g>
<!-- Node1 -->
<g id="node2" class="node">
<title>Node1</title>
<g id="a_node2"><a xlink:href="classfiftyone_1_1pipeline_1_1core_1_1_flow_element.html" target="_top" xlink:title="A FlowElement is placed inside a Pipeline It receives Evidence via a FlowData object It uses this to ...">
<polygon fill="none" stroke="black" points="0,-24.5 0,-54.5 119,-54.5 119,-24.5 0,-24.5"/>
<text text-anchor="start" x="8" y="-42.5" font-family="Helvetica,sans-Serif" font-size="10.00">fiftyone\pipeline\core</text>
<text text-anchor="middle" x="59.5" y="-31.5" font-family="Helvetica,sans-Serif" font-size="10.00">\FlowElement</text>
</a>
</g>
</g>
<!-- Node1&#45;&gt;Node0 -->
<g id="edge1" class="edge">
<title>Node1&#45;&gt;Node0</title>
<path fill="none" stroke="midnightblue" d="M129.54,-39.5C137.91,-39.5 146.46,-39.5 154.81,-39.5"/>
<polygon fill="midnightblue" stroke="midnightblue" points="129.44,-36 119.44,-39.5 129.44,-43 129.44,-36"/>
</g>
</g>
</svg>
