<?xml version="1.0" encoding="UTF-8" standalone="no"?>
<!DOCTYPE svg PUBLIC "-//W3C//DTD SVG 1.1//EN"
 "http://www.w3.org/Graphics/SVG/1.1/DTD/svg11.dtd">
<!-- Generated by graphviz version 2.43.0 (0)
 -->
<!-- Title: fiftyone\pipeline\core\FlowElement Pages: 1 -->
<svg width="518pt" height="374pt"
 viewBox="0.00 0.00 518.00 373.50" xmlns="http://www.w3.org/2000/svg" xmlns:xlink="http://www.w3.org/1999/xlink">
<g id="graph0" class="graph" transform="scale(1 1) rotate(0) translate(4 369.5)">
<title>fiftyone\pipeline\core\FlowElement</title>
<!-- Node0 -->
<g id="node1" class="node">
<title>Node0</title>
<g id="a_node1"><a xlink:title="A FlowElement is placed inside a Pipeline It receives Evidence via a FlowData object It uses this to ...">
<polygon fill="#bfbfbf" stroke="black" points="0,-220.5 0,-250.5 119,-250.5 119,-220.5 0,-220.5"/>
<text text-anchor="start" x="8" y="-238.5" font-family="Helvetica,sans-Serif" font-size="10.00">fiftyone\pipeline\core</text>
<text text-anchor="middle" x="59.5" y="-227.5" font-family="Helvetica,sans-Serif" font-size="10.00">\FlowElement</text>
</a>
</g>
</g>
<!-- Node1 -->
<g id="node2" class="node">
<title>Node1</title>
<g id="a_node2"><a xlink:href="class_astrology_flow_element.html" target="_top" xlink:title="[class] [declaration]">
<polygon fill="none" stroke="black" points="163,-346 163,-365 290,-365 290,-346 163,-346"/>
<text text-anchor="middle" x="226.5" y="-353" font-family="Helvetica,sans-Serif" font-size="10.00">AstrologyFlowElement</text>
</a>
</g>
</g>
<!-- Node0&#45;&gt;Node1 -->
<g id="edge1" class="edge">
<title>Node0&#45;&gt;Node1</title>
<path fill="none" stroke="midnightblue" d="M81.64,-258.62C98.88,-279.64 125.2,-309.6 155,-327.5 170.86,-337.03 191.56,-341.87 206.42,-345.94"/>
<polygon fill="midnightblue" stroke="midnightblue" points="84.28,-256.32 75.26,-250.77 78.85,-260.74 84.28,-256.32"/>
</g>
<!-- Node0&#45;&gt;Node1 -->
<g id="edge2" class="edge">
<title>Node0&#45;&gt;Node1</title>
<path fill="none" stroke="midnightblue" d="M72.2,-259.25C88.2,-284.81 119.07,-323.91 155,-345.5 157.5,-347 160.12,-348.39 162.82,-349.66"/>
<polygon fill="midnightblue" stroke="midnightblue" points="75.11,-257.31 66.99,-250.51 69.1,-260.89 75.11,-257.31"/>
</g>
<!-- Node2 -->
<g id="node3" class="node">
<title>Node2</title>
<g id="a_node3"><a xlink:href="class_example_flow_element_a.html" target="_top" xlink:title=" ">
<polygon fill="none" stroke="black" points="161.5,-308 161.5,-327 291.5,-327 291.5,-308 161.5,-308"/>
<text text-anchor="middle" x="226.5" y="-315" font-family="Helvetica,sans-Serif" font-size="10.00">ExampleFlowElementA</text>
</a>
</g>
</g>
<!-- Node0&#45;&gt;Node2 -->
<g id="edge3" class="edge">
<title>Node0&#45;&gt;Node2</title>
<path fill="none" stroke="midnightblue" d="M98.06,-256.36C114.76,-267.49 135.12,-280.49 155,-289.5 173.13,-297.72 195.54,-303 210.16,-307.94"/>
<polygon fill="midnightblue" stroke="midnightblue" points="99.93,-253.41 89.68,-250.75 96.04,-259.22 99.93,-253.41"/>
</g>
<!-- Node0&#45;&gt;Node2 -->
<g id="edge4" class="edge">
<title>Node0&#45;&gt;Node2</title>
<path fill="none" stroke="midnightblue" d="M79.33,-257.68C97.66,-273.93 126.81,-294.72 155,-307.5 157.08,-308.44 159.21,-309.35 161.39,-310.21"/>
<polygon fill="midnightblue" stroke="midnightblue" points="81.41,-254.84 71.71,-250.58 76.64,-259.96 81.41,-254.84"/>
</g>
<!-- Node3 -->
<g id="node4" class="node">
<title>Node3</title>
<g id="a_node4"><a xlink:href="class_example_flow_element_b.html" target="_top" xlink:title=" ">
<polygon fill="none" stroke="black" points="161.5,-270 161.5,-289 291.5,-289 291.5,-270 161.5,-270"/>
<text text-anchor="middle" x="226.5" y="-277" font-family="Helvetica,sans-Serif" font-size="10.00">ExampleFlowElementB</text>
</a>
</g>
</g>
<!-- Node0&#45;&gt;Node3 -->
<g id="edge5" class="edge">
<title>Node0&#45;&gt;Node3</title>
<path fill="none" stroke="midnightblue" d="M128.95,-247.09C157,-254.22 187.3,-263.01 206.32,-269.87"/>
<polygon fill="midnightblue" stroke="midnightblue" points="129.69,-243.67 119.14,-244.64 127.99,-250.46 129.69,-243.67"/>
</g>
<!-- Node0&#45;&gt;Node3 -->
<g id="edge6" class="edge">
<title>Node0&#45;&gt;Node3</title>
<path fill="none" stroke="midnightblue" d="M105.48,-253.58C123.87,-259.18 145.43,-265.08 165.16,-269.94"/>
<polygon fill="midnightblue" stroke="midnightblue" points="106.49,-250.23 95.9,-250.6 104.4,-256.91 106.49,-250.23"/>
</g>
<!-- Node4 -->
<g id="node5" class="node">
<title>Node4</title>
<g id="a_node5"><a xlink:href="classfiftyone_1_1pipeline_1_1core_1_1_javascript_builder_element.html" target="_top" xlink:title="The JavaScriptBuilder aggregates JavaScript properties from FlowElements in the Pipeline.">
<polygon fill="none" stroke="black" points="155,-220.5 155,-250.5 298,-250.5 298,-220.5 155,-220.5"/>
<text text-anchor="start" x="163" y="-238.5" font-family="Helvetica,sans-Serif" font-size="10.00">fiftyone\pipeline\core</text>
<text text-anchor="middle" x="226.5" y="-227.5" font-family="Helvetica,sans-Serif" font-size="10.00">\JavascriptBuilderElement</text>
</a>
</g>
</g>
<!-- Node0&#45;&gt;Node4 -->
<g id="edge7" class="edge">
<title>Node0&#45;&gt;Node4</title>
<path fill="none" stroke="midnightblue" d="M129.33,-228.83C137.78,-228.73 146.43,-228.72 154.91,-228.81"/>
<polygon fill="midnightblue" stroke="midnightblue" points="129.08,-225.34 119.14,-229.01 129.2,-232.34 129.08,-225.34"/>
</g>
<!-- Node0&#45;&gt;Node4 -->
<g id="edge8" class="edge">
<title>Node0&#45;&gt;Node4</title>
<path fill="none" stroke="midnightblue" d="M129.33,-242.17C137.78,-242.27 146.43,-242.28 154.91,-242.19"/>
<polygon fill="midnightblue" stroke="midnightblue" points="129.2,-238.66 119.14,-241.99 129.08,-245.66 129.2,-238.66"/>
</g>
<!-- Node5 -->
<g id="node6" class="node">
<title>Node5</title>
<g id="a_node6"><a xlink:href="classfiftyone_1_1pipeline_1_1core_1_1_json_bundler_element.html" target="_top" xlink:title="The JSONBundler aggregates all properties from FlowElements into a JSON object It is used for retriev...">
<polygon fill="none" stroke="black" points="167,-171.5 167,-201.5 286,-201.5 286,-171.5 167,-171.5"/>
<text text-anchor="start" x="175" y="-189.5" font-family="Helvetica,sans-Serif" font-size="10.00">fiftyone\pipeline\core</text>
<text text-anchor="middle" x="226.5" y="-178.5" font-family="Helvetica,sans-Serif" font-size="10.00">\JsonBundlerElement</text>
</a>
</g>
</g>
<!-- Node0&#45;&gt;Node5 -->
<g id="edge9" class="edge">
<title>Node0&#45;&gt;Node5</title>
<path fill="none" stroke="midnightblue" d="M102.27,-217.14C121.89,-210.48 145.62,-203.26 166.99,-197.39"/>
<polygon fill="midnightblue" stroke="midnightblue" points="101.01,-213.87 92.71,-220.46 103.3,-220.48 101.01,-213.87"/>
</g>
<!-- Node0&#45;&gt;Node5 -->
<g id="edge10" class="edge">
<title>Node0&#45;&gt;Node5</title>
<path fill="none" stroke="midnightblue" d="M128.87,-221.86C151.06,-215.55 174.65,-208.16 192.97,-201.66"/>
<polygon fill="midnightblue" stroke="midnightblue" points="127.83,-218.52 119.14,-224.58 129.71,-225.26 127.83,-218.52"/>
</g>
<!-- Node6 -->
<g id="node7" class="node">
<title>Node6</title>
<g id="a_node7"><a xlink:href="classfiftyone_1_1pipeline_1_1core_1_1_sequence_element.html" target="_top" xlink:title="The SequenceElement stores session data regarding requests for client side JavaScript from the JavaSc...">
<polygon fill="none" stroke="black" points="167,-122.5 167,-152.5 286,-152.5 286,-122.5 167,-122.5"/>
<text text-anchor="start" x="175" y="-140.5" font-family="Helvetica,sans-Serif" font-size="10.00">fiftyone\pipeline\core</text>
<text text-anchor="middle" x="226.5" y="-129.5" font-family="Helvetica,sans-Serif" font-size="10.00">\SequenceElement</text>
</a>
</g>
</g>
<!-- Node0&#45;&gt;Node6 -->
<g id="edge11" class="edge">
<title>Node0&#45;&gt;Node6</title>
<path fill="none" stroke="midnightblue" d="M77.48,-212.94C95.55,-194.5 125.54,-169.57 155,-153.5 158.76,-151.45 162.73,-149.51 166.78,-147.71"/>
<polygon fill="midnightblue" stroke="midnightblue" points="74.78,-210.71 70.5,-220.4 79.89,-215.49 74.78,-210.71"/>
</g>
<!-- Node0&#45;&gt;Node6 -->
<g id="edge12" class="edge">
<title>Node0&#45;&gt;Node6</title>
<path fill="none" stroke="midnightblue" d="M93.55,-213.85C110.91,-200.28 133.1,-183.44 155,-171.5 169.02,-163.85 185.85,-157.78 199.54,-152.54"/>
<polygon fill="midnightblue" stroke="midnightblue" points="91.14,-211.28 85.43,-220.21 95.46,-216.79 91.14,-211.28"/>
</g>
<!-- Node7 -->
<g id="node8" class="node">
<title>Node7</title>
<g id="a_node8"><a xlink:href="classfiftyone_1_1pipeline_1_1core_1_1_set_header_element.html" target="_top" xlink:title="Set response headers element class.">
<polygon fill="none" stroke="black" points="167,-73.5 167,-103.5 286,-103.5 286,-73.5 167,-73.5"/>
<text text-anchor="start" x="175" y="-91.5" font-family="Helvetica,sans-Serif" font-size="10.00">fiftyone\pipeline\core</text>
<text text-anchor="middle" x="226.5" y="-80.5" font-family="Helvetica,sans-Serif" font-size="10.00">\SetHeaderElement</text>
</a>
</g>
</g>
<!-- Node0&#45;&gt;Node7 -->
<g id="edge13" class="edge">
<title>Node0&#45;&gt;Node7</title>
<path fill="none" stroke="midnightblue" d="M70.29,-211.07C85.19,-181.43 116,-132.72 155,-104.5 158.68,-101.84 162.68,-99.43 166.83,-97.29"/>
<polygon fill="midnightblue" stroke="midnightblue" points="67.01,-209.81 65.86,-220.34 73.33,-212.83 67.01,-209.81"/>
</g>
<!-- Node0&#45;&gt;Node7 -->
<g id="edge14" class="edge">
<title>Node0&#45;&gt;Node7</title>
<path fill="none" stroke="midnightblue" d="M77.61,-211.43C94.14,-185.96 121.55,-146.69 155,-122.5 166.68,-114.05 181.48,-108.23 194.51,-103.61"/>
<polygon fill="midnightblue" stroke="midnightblue" points="74.47,-209.83 72.02,-220.13 80.36,-213.61 74.47,-209.83"/>
</g>
<!-- Node8 -->
<g id="node9" class="node">
<title>Node8</title>
<g id="a_node9"><a xlink:href="classfiftyone_1_1pipeline_1_1engines_1_1_engine.html" target="_top" xlink:title="An engine is an extension of the Pipeline Core flowElement class It allows for a cache,...">
<polygon fill="none" stroke="black" points="158,-24.5 158,-54.5 295,-54.5 295,-24.5 158,-24.5"/>
<text text-anchor="start" x="166" y="-42.5" font-family="Helvetica,sans-Serif" font-size="10.00">fiftyone\pipeline\engines</text>
<text text-anchor="middle" x="226.5" y="-31.5" font-family="Helvetica,sans-Serif" font-size="10.00">\Engine</text>
</a>
</g>
</g>
<!-- Node0&#45;&gt;Node8 -->
<g id="edge15" class="edge">
<title>Node0&#45;&gt;Node8</title>
<path fill="none" stroke="midnightblue" d="M68,-210.37C80.29,-173.34 108.15,-104.23 155,-64.5 159.56,-60.64 164.75,-57.35 170.21,-54.57"/>
<polygon fill="midnightblue" stroke="midnightblue" points="64.52,-209.74 64.81,-220.34 71.19,-211.88 64.52,-209.74"/>
</g>
<!-- Node9 -->
<g id="node10" class="node">
<title>Node9</title>
<g id="a_node10"><a xlink:href="classfiftyone_1_1pipeline_1_1devicedetection_1_1_device_detection_on_premise.html" target="_top" xlink:title=" ">
<polygon fill="none" stroke="black" points="334,-49.5 334,-79.5 510,-79.5 510,-49.5 334,-49.5"/>
<text text-anchor="start" x="342" y="-67.5" font-family="Helvetica,sans-Serif" font-size="10.00">fiftyone\pipeline\devicedetection</text>
<text text-anchor="middle" x="422" y="-56.5" font-family="Helvetica,sans-Serif" font-size="10.00">\DeviceDetectionOnPremise</text>
</a>
</g>
</g>
<!-- Node8&#45;&gt;Node9 -->
<g id="edge16" class="edge">
<title>Node8&#45;&gt;Node9</title>
<path fill="none" stroke="midnightblue" d="M305.3,-49.55C314.73,-50.77 324.42,-52.02 333.97,-53.26"/>
<polygon fill="midnightblue" stroke="midnightblue" points="305.54,-46.05 295.18,-48.24 304.65,-53 305.54,-46.05"/>
</g>
<!-- Node10 -->
<g id="node11" class="node">
<title>Node10</title>
<g id="a_node11"><a xlink:href="classfiftyone_1_1pipeline_1_1engines_1_1_cloud_engine_base.html" target="_top" xlink:title="Intermediary between Engine and CloudEngine classes.">
<polygon fill="none" stroke="black" points="353.5,-0.5 353.5,-30.5 490.5,-30.5 490.5,-0.5 353.5,-0.5"/>
<text text-anchor="start" x="361.5" y="-18.5" font-family="Helvetica,sans-Serif" font-size="10.00">fiftyone\pipeline\engines</text>
<text text-anchor="middle" x="422" y="-7.5" font-family="Helvetica,sans-Serif" font-size="10.00">\CloudEngineBase</text>
</a>
</g>
</g>
<!-- Node8&#45;&gt;Node10 -->
<g id="edge17" class="edge">
<title>Node8&#45;&gt;Node10</title>
<path fill="none" stroke="midnightblue" d="M305.48,-29.83C321.34,-27.86 337.9,-25.81 353.36,-23.89"/>
<polygon fill="midnightblue" stroke="midnightblue" points="304.67,-26.4 295.18,-31.11 305.53,-33.35 304.67,-26.4"/>
</g>
</g>
</svg>
