<?xml version="1.0" encoding="UTF-8" standalone="no"?>
<!DOCTYPE svg PUBLIC "-//W3C//DTD SVG 1.1//EN"
 "http://www.w3.org/Graphics/SVG/1.1/DTD/svg11.dtd">
<!-- Generated by graphviz version 2.43.0 (0)
 -->
<!-- Title: EngineHashSwig Pages: 1 -->
<svg width="162pt" height="140pt"
 viewBox="0.00 0.00 162.00 140.00" xmlns="http://www.w3.org/2000/svg" xmlns:xlink="http://www.w3.org/1999/xlink">
<g id="graph0" class="graph" transform="scale(1 1) rotate(0) translate(4 136)">
<title>EngineHashSwig</title>
<!-- Node0 -->
<g id="node1" class="node">
<title>Node0</title>
<g id="a_node1"><a xlink:title=" ">
<polygon fill="#bfbfbf" stroke="black" points="28,-0.5 28,-19.5 126,-19.5 126,-0.5 28,-0.5"/>
<text text-anchor="middle" x="77" y="-7.5" font-family="Helvetica,sans-Serif" font-size="10.00">EngineHashSwig</text>
</a>
</g>
</g>
<!-- Node1 -->
<g id="node2" class="node">
<title>Node1</title>
<g id="a_node2"><a xlink:href="class_engine_device_detection_swig.html" target="_top" xlink:title=" ">
<polygon fill="none" stroke="black" points="0,-56.5 0,-75.5 154,-75.5 154,-56.5 0,-56.5"/>
<text text-anchor="middle" x="77" y="-63.5" font-family="Helvetica,sans-Serif" font-size="10.00">EngineDeviceDetectionSwig</text>
</a>
</g>
</g>
<!-- Node1&#45;&gt;Node0 -->
<g id="edge1" class="edge">
<title>Node1&#45;&gt;Node0</title>
<path fill="none" stroke="midnightblue" d="M57.71,-46.69C55.63,-37.59 56.93,-27.01 61.61,-19.75"/>
<polygon fill="midnightblue" stroke="midnightblue" points="54.51,-48.12 61.5,-56.08 61.01,-45.5 54.51,-48.12"/>
</g>
<!-- Node1&#45;&gt;Node0 -->
<g id="edge6" class="edge">
<title>Node1&#45;&gt;Node0</title>
<path fill="none" stroke="midnightblue" d="M70.53,-46.1C69.9,-37.14 70.34,-26.86 71.87,-19.75"/>
<polygon fill="midnightblue" stroke="midnightblue" points="67.07,-46.62 71.83,-56.08 74.01,-45.71 67.07,-46.62"/>
</g>
<!-- Node1&#45;&gt;Node0 -->
<g id="edge7" class="edge">
<title>Node1&#45;&gt;Node0</title>
<path fill="none" stroke="midnightblue" d="M83.47,-46.1C84.1,-37.14 83.66,-26.86 82.13,-19.75"/>
<polygon fill="midnightblue" stroke="midnightblue" points="79.99,-45.71 82.17,-56.08 86.93,-46.62 79.99,-45.71"/>
</g>
<!-- Node1&#45;&gt;Node0 -->
<g id="edge8" class="edge">
<title>Node1&#45;&gt;Node0</title>
<path fill="none" stroke="midnightblue" d="M96.29,-46.69C98.37,-37.59 97.07,-27.01 92.39,-19.75"/>
<polygon fill="midnightblue" stroke="midnightblue" points="92.99,-45.5 92.5,-56.08 99.49,-48.12 92.99,-45.5"/>
</g>
<!-- Node2 -->
<g id="node3" class="node">
<title>Node2</title>
<g id="a_node3"><a xlink:href="class_engine_base_swig.html" target="_top" xlink:title=" ">
<polygon fill="none" stroke="black" points="28.5,-112.5 28.5,-131.5 125.5,-131.5 125.5,-112.5 28.5,-112.5"/>
<text text-anchor="middle" x="77" y="-119.5" font-family="Helvetica,sans-Serif" font-size="10.00">EngineBaseSwig</text>
</a>
</g>
</g>
<!-- Node2&#45;&gt;Node1 -->
<g id="edge2" class="edge">
<title>Node2&#45;&gt;Node1</title>
<path fill="none" stroke="midnightblue" d="M57.71,-102.69C55.63,-93.59 56.93,-83.01 61.61,-75.75"/>
<polygon fill="midnightblue" stroke="midnightblue" points="54.51,-104.12 61.5,-112.08 61.01,-101.5 54.51,-104.12"/>
</g>
<!-- Node2&#45;&gt;Node1 -->
<g id="edge3" class="edge">
<title>Node2&#45;&gt;Node1</title>
<path fill="none" stroke="midnightblue" d="M70.53,-102.1C69.9,-93.14 70.34,-82.86 71.87,-75.75"/>
<polygon fill="midnightblue" stroke="midnightblue" points="67.07,-102.62 71.83,-112.08 74.01,-101.71 67.07,-102.62"/>
</g>
<!-- Node2&#45;&gt;Node1 -->
<g id="edge4" class="edge">
<title>Node2&#45;&gt;Node1</title>
<path fill="none" stroke="midnightblue" d="M83.47,-102.1C84.1,-93.14 83.66,-82.86 82.13,-75.75"/>
<polygon fill="midnightblue" stroke="midnightblue" points="79.99,-101.71 82.17,-112.08 86.93,-102.62 79.99,-101.71"/>
</g>
<!-- Node2&#45;&gt;Node1 -->
<g id="edge5" class="edge">
<title>Node2&#45;&gt;Node1</title>
<path fill="none" stroke="midnightblue" d="M96.29,-102.69C98.37,-93.59 97.07,-83.01 92.39,-75.75"/>
<polygon fill="midnightblue" stroke="midnightblue" points="92.99,-101.5 92.5,-112.08 99.49,-104.12 92.99,-101.5"/>
</g>
</g>
</svg>
