<?xml version="1.0" encoding="UTF-8" standalone="no"?>
<!DOCTYPE svg PUBLIC "-//W3C//DTD SVG 1.1//EN"
 "http://www.w3.org/Graphics/SVG/1.1/DTD/svg11.dtd">
<!-- Generated by graphviz version 2.43.0 (0)
 -->
<!-- Title: EvidenceBaseSwig Pages: 1 -->
<svg width="126pt" height="84pt"
 viewBox="0.00 0.00 126.00 84.00" xmlns="http://www.w3.org/2000/svg" xmlns:xlink="http://www.w3.org/1999/xlink">
<g id="graph0" class="graph" transform="scale(1 1) rotate(0) translate(4 80)">
<title>EvidenceBaseSwig</title>
<!-- Node3 -->
<g id="node1" class="node">
<title>Node3</title>
<g id="a_node1"><a xlink:title=" ">
<polygon fill="#bfbfbf" stroke="black" points="5,-0.5 5,-19.5 113,-19.5 113,-0.5 5,-0.5"/>
<text text-anchor="middle" x="59" y="-7.5" font-family="Helvetica,sans-Serif" font-size="10.00">EvidenceBaseSwig</text>
</a>
</g>
</g>
<!-- Node4 -->
<g id="node2" class="node">
<title>Node4</title>
<g id="a_node2"><a xlink:href="class_map_string_string_swig.html" target="_top" xlink:title=" ">
<polygon fill="none" stroke="black" points="0,-56.5 0,-75.5 118,-75.5 118,-56.5 0,-56.5"/>
<text text-anchor="middle" x="59" y="-63.5" font-family="Helvetica,sans-Serif" font-size="10.00">MapStringStringSwig</text>
</a>
</g>
</g>
<!-- Node4&#45;&gt;Node3 -->
<g id="edge1" class="edge">
<title>Node4&#45;&gt;Node3</title>
<path fill="none" stroke="midnightblue" d="M39.71,-46.69C37.63,-37.59 38.93,-27.01 43.61,-19.75"/>
<polygon fill="midnightblue" stroke="midnightblue" points="36.51,-48.12 43.5,-56.08 43.01,-45.5 36.51,-48.12"/>
</g>
<!-- Node4&#45;&gt;Node3 -->
<g id="edge2" class="edge">
<title>Node4&#45;&gt;Node3</title>
<path fill="none" stroke="midnightblue" d="M52.53,-46.1C51.9,-37.14 52.34,-26.86 53.87,-19.75"/>
<polygon fill="midnightblue" stroke="midnightblue" points="49.07,-46.62 53.83,-56.08 56.01,-45.71 49.07,-46.62"/>
</g>
<!-- Node4&#45;&gt;Node3 -->
<g id="edge3" class="edge">
<title>Node4&#45;&gt;Node3</title>
<path fill="none" stroke="midnightblue" d="M65.47,-46.1C66.1,-37.14 65.66,-26.86 64.13,-19.75"/>
<polygon fill="midnightblue" stroke="midnightblue" points="61.99,-45.71 64.17,-56.08 68.93,-46.62 61.99,-45.71"/>
</g>
<!-- Node4&#45;&gt;Node3 -->
<g id="edge4" class="edge">
<title>Node4&#45;&gt;Node3</title>
<path fill="none" stroke="midnightblue" d="M78.29,-46.69C80.37,-37.59 79.07,-27.01 74.39,-19.75"/>
<polygon fill="midnightblue" stroke="midnightblue" points="74.99,-45.5 74.5,-56.08 81.49,-48.12 74.99,-45.5"/>
</g>
</g>
</svg>
